<svg width="56" height="60" fill="none" xmlns="http://www.w3.org/2000/svg"><path d="M51.42.515a1.758 1.758 0 0 0-2.485 0L29.32 20.13c-.33.33-.515.777-.515 1.243v3.02h-3.02c-.467 0-.914.186-1.243.515l-5.97 5.97-2.008-2.008a1.758 1.758 0 1 0-2.486 2.486l3.131 3.131L2.343 49.353a6.196 6.196 0 0 0-1.827 4.41 6.2 6.2 0 0 0 1.827 4.41A6.196 6.196 0 0 0 6.753 60a6.196 6.196 0 0 0 4.41-1.827l3.731-3.73 4.126-4.126v-.001l4.126-4.125v-.001l2.883-2.883 3.131 3.131c.343.344.793.515 1.243.515a1.758 1.758 0 0 0 1.243-3l-2.008-2.008 21.783-21.783c5.417-5.416 5.417-14.23 0-19.647zM6.754 56.485c-.727 0-1.41-.284-1.924-.797a2.703 2.703 0 0 1-.797-1.925 2.7 2.7 0 0 1 .797-1.923l14.866-14.867 3.848 3.848-1.64 1.64-.943-.943a1.758 1.758 0 0 0-2.486 2.486l.943.943-1.64 1.64-.943-.943a1.758 1.758 0 0 0-2.486 2.486l.943.943-1.64 1.64-.943-.943a1.758 1.758 0 0 0-2.486 2.486l.943.943-2.488 2.489a2.703 2.703 0 0 1-1.924.796zm20.4-17.026l-6.095-6.095 5.454-5.455h4.05c.972 0 1.759-.787 1.759-1.758v-4.05L50.073 4.349c2.864 4.048 2.484 9.705-1.138 13.327L27.152 39.46z" fill="#fff"/></svg>