<svg width="69" height="69" fill="none" xmlns="http://www.w3.org/2000/svg"><path d="M65.831 29.565h-1.677v-11.21c0-2.63-2.093-4.702-4.616-4.702h-1.261v-7.49c0-2.63-1.96-4.702-4.334-4.702h-.282L5.81 13.64c-.014 0-.04.012-.054.012-2.362.186-4.28 2.192-4.28 4.702V61.84c0 2.63 2.092 4.702 4.615 4.702h53.446c2.657 0 4.75-2.072 4.75-4.702V50.337h1.543c.846 0 1.396-.558 1.396-1.381V30.959c0-.836-.698-1.394-1.396-1.394zM54.211 4.09c.698.133 1.395.97 1.395 2.072v7.477H17.001l37.21-9.55zm7.286 57.748c0 1.102-.845 2.072-1.959 2.072H6.092c-1.114 0-1.959-.97-1.959-2.072V18.355c0-1.102.845-2.072 1.96-2.072H59.39c1.114 0 1.96.97 1.96 2.072v11.21H47.502c-5.878 0-10.494 4.569-10.494 10.386 0 5.817 4.75 10.386 10.494 10.386h13.995V61.84zm2.925-14.132h-16.92c-4.2 0-7.69-3.466-7.69-7.61s3.503-7.61 7.69-7.61h16.92v15.22z" fill="#333"/><path d="M45.959 40.23c0 .837.697 1.381 1.395 1.381h1.261c.698 0 1.396-.558 1.396-1.381 0-.837-.698-1.381-1.396-1.381h-1.248c-.845 0-1.408.558-1.408 1.38z" fill="#333"/></svg>