<svg width="60" height="60" fill="none" xmlns="http://www.w3.org/2000/svg"><path d="M1.33 45.643a2.939 2.939 0 0 0 4.144.334.941.941 0 0 1 1.327.106l5.66 6.65a.942.942 0 0 1-.107 1.326 2.94 2.94 0 0 0-.332 4.144l.628.74a2.924 2.924 0 0 0 2.244 1.034c.697 0 1.372-.248 1.901-.702L26.4 51.1a.998.998 0 0 0 .352-.733l.136-4.909 3.885-.539a1.979 1.979 0 0 0 1.699-1.953l-.03-4.005 4.036-.556c.975-.138 1.7-.97 1.7-1.954l-.03-4.005 4.035-.555c.975-.137 1.7-.97 1.701-1.954l-.03-4.005 4.044-.561a1.974 1.974 0 0 0 1.7-1.956l-.036-3.997 4.034-.555c.975-.137 1.7-.97 1.702-1.954l-.03-4.029 3.089-.516a1.97 1.97 0 0 0 1.175-3.22L52.464.842a1.97 1.97 0 0 0-2.777-.223L17.642 27.897a3.879 3.879 0 0 0-2.57.914L1.035 40.76a2.94 2.94 0 0 0-.334 4.145l.629.738zM50.941 2.138l7.084 8.253-3.087.516c-.952.157-1.65.98-1.647 1.946l.032 4.028-4.035.555c-.975.138-1.7.972-1.701 1.957l.036 3.997-4.044.56a1.976 1.976 0 0 0-1.7 1.954l.03 4.005-4.034.556c-.975.137-1.7.97-1.702 1.954l.03 4.004-4.035.555c-.975.138-1.7.97-1.701 1.956l.03 4.004-3.555.493.118-4.253a5.842 5.842 0 0 0-1.393-3.954l-5.083-5.97a3.859 3.859 0 0 0-.708-.635L50.941 2.138zM2.331 42.282l14.037-11.95a1.914 1.914 0 0 1 2.694.218l5.082 5.97a3.84 3.84 0 0 1 .918 2.603l-.297 10.743-9.265 7.888a.94.94 0 0 1-1.326-.107l-.63-.74a.942.942 0 0 1 .107-1.326 2.945 2.945 0 0 0 .333-4.144l-5.66-6.65a2.922 2.922 0 0 0-2.244-1.034 2.92 2.92 0 0 0-1.901.7.94.94 0 0 1-1.327-.107l-.629-.737a.941.941 0 0 1 .108-1.327z" fill="#fff"/><path d="M16.155 49.588a1.957 1.957 0 0 0 1.503.693c.445 0 .876-.15 1.223-.428l2.33-1.571c.032-.022.062-.045.09-.069a1.97 1.97 0 0 0 .692-1.493l.028-8.139a2.017 2.017 0 0 0-.536-1.355l-2.708-2.611a1.955 1.955 0 0 0-1.342-.687 1.984 1.984 0 0 0-1.435.463l-5.911 5.033a1.974 1.974 0 0 0-.224 2.776l6.29 7.388zm1.165-13.607l2.702 2.611-.018 8.094-2.326 1.607-4.402-5.172-1.89-2.175 5.934-4.965zm7.305-5.988a.996.996 0 0 0 .648-.238l1.478-1.258a1 1 0 0 0-1.296-1.523l-1.478 1.258a1 1 0 0 0 .648 1.76zm4.433-3.773a.995.995 0 0 0 .649-.24L49.654 9a1 1 0 1 0-1.296-1.522L28.41 24.46a1 1 0 0 0 .648 1.76z" fill="#fff"/></svg>