<svg width="60" height="60" fill="none" xmlns="http://www.w3.org/2000/svg"><path d="M57.91 29.755a.933.933 0 0 0-1.684.801c1.852 3.894 2.356 7.24 1.502 9.959-1.463-6.188-7.536-12.947-12.336-17.756l3.178-3.348c2.48 2.886 4.504 5.619 6.023 8.132a.933.933 0 0 0 1.596-.965c-1.626-2.69-3.8-5.61-6.466-8.686a2.151 2.151 0 0 0-.39-2.05l.638-.666a1.659 1.659 0 0 0-.025-2.307l-2.815-2.814a1.639 1.639 0 0 0-1.166-.484c-.427 0-.832.163-1.14.458l-.664.635a2.153 2.153 0 0 0-2.127-.45C34.198 3.437 27.54 0 22.24 0c-1.467 0-2.85.263-4.113.781-.69.283-1.1.973-1.022 1.717a1.655 1.655 0 0 0 1.358 1.467c6.347 1.156 14.08 8.582 17.363 11.865a2.15 2.15 0 0 0-.553 1.415 2.149 2.149 0 0 0 .518 1.432L17.047 36.625a.933.933 0 1 0 1.29 1.348l18.768-17.97 2.892 2.892-33.37 34.853a1.244 1.244 0 0 1-.893.387 1.25 1.25 0 0 1-.9-.368l-2.601-2.6a1.253 1.253 0 0 1 .019-1.794l13.544-12.968a.932.932 0 1 0-1.29-1.347L.962 52.026A3.096 3.096 0 0 0 0 54.246c-.01.846.315 1.641.914 2.24l2.6 2.6a3.095 3.095 0 0 0 2.24.914 3.096 3.096 0 0 0 2.22-.962L41.33 24.2c.38.295.841.456 1.33.456.532 0 1.048-.2 1.443-.552 3.301 3.294 10.78 11.065 11.933 17.426a1.656 1.656 0 0 0 1.649 1.37c.673 0 1.276-.399 1.536-1.033 1.368-3.334.927-7.41-1.31-12.113zM45.963 11.523l2.515 2.515-.456.477-1.268-1.268-1.268-1.268.477-.456zM19.48 2.273a9.16 9.16 0 0 1 2.761-.408c4.776 0 10.922 3.196 18.274 9.501l-3.343 3.174C30.007 7.421 24.204 3.397 19.481 2.274zm23.932 19.862l-.534.563a.3.3 0 0 1-.22.094.298.298 0 0 1-.215-.089l-.481-.481-4.184-4.183-.55-.55a.302.302 0 0 1 .006-.436l.563-.534 2.006-1.904 2.686-2.55.027-.023a.301.301 0 0 1 .41.016l4.947 4.948a.301.301 0 0 1 .018.408c0 .002-.002.003-.003.004l-4.476 4.717z" fill="#fff"/></svg>