<svg width="65" height="65" fill="none" xmlns="http://www.w3.org/2000/svg"><g clip-path="url(#clip0)"><path d="M64.924 24.283a1.103 1.103 0 0 0-.631-.626L49.59 18.013l-.268-.269 1.872-1.871a2.696 2.696 0 0 0 0-3.81l-4.767-4.766a2.676 2.676 0 0 0-1.905-.789c-.72 0-1.396.28-1.904.789l-1.872 1.872-.501-.501a1.102 1.102 0 0 0-1.56 0l-9.978 9.978a1.102 1.102 0 0 0 0 1.56l.501.5-5.236 5.237a5.963 5.963 0 0 0-1.757 4.24c0 .501-.097.989-.29 1.451a3.761 3.761 0 0 1-.82 1.23L8.744 45.226a2.938 2.938 0 0 1-2.329.852 5.104 5.104 0 0 0-2.196.296 5.177 5.177 0 0 0-1.872 1.195L.949 48.967a3.248 3.248 0 0 0 0 4.589l3.987 3.987a3.235 3.235 0 0 0 2.295.949c.83 0 1.661-.316 2.294-.949l28.26-28.26.269.268 5.644 14.701a1.102 1.102 0 0 0 1.514.595 43.162 43.162 0 0 0 19.676-19.675c.136-.278.149-.6.036-.889zM44.178 8.856a.486.486 0 0 1 .69 0l4.768 4.767c.19.19.19.5 0 .69l-1.872 1.872-5.458-5.457 1.872-1.872zM7.965 55.984a1.04 1.04 0 0 1-1.47 0l-3.987-3.988a1.04 1.04 0 0 1 0-1.47l1.397-1.397a2.92 2.92 0 0 1 1.072-.683 2.917 2.917 0 0 1 1.255-.17 5.138 5.138 0 0 0 4.07-1.49l12.364-12.363a5.954 5.954 0 0 0 1.297-1.944c.304-.73.458-1.502.458-2.295a3.77 3.77 0 0 1 1.11-2.681l5.238-5.237 5.457 5.457-28.26 28.26zM45.318 42.32l-.675-1.759a42.811 42.811 0 0 0 11.246-9.286 1.103 1.103 0 0 0-1.672-1.438 40.603 40.603 0 0 1-10.375 8.638l-3.814-9.933a1.105 1.105 0 0 0-.25-.385l-8.731-8.731 8.42-8.42 8.73 8.732c.11.11.24.194.385.25l9.933 3.813a40.728 40.728 0 0 1-1.02 1.662 1.103 1.103 0 0 0 1.849 1.2c.436-.671.856-1.362 1.256-2.061l1.76.675A40.978 40.978 0 0 1 45.318 42.32z" fill="#fff"/></g><defs><clipPath id="clip0"><path fill="#fff" d="M0 0h65v65H0z"/></clipPath></defs></svg>