<svg width="74" height="74" fill="none" xmlns="http://www.w3.org/2000/svg"><path d="M70.705 29.353l-3.582-3.583a2 2 0 0 0-1.433-.573 2 2 0 0 0-1.433.573c-.717-.717-.789-.931-.789-1.791.072-.359 0-.86-.071-1.362a7.158 7.158 0 0 0-2.006-4.012l-3.726-3.726c-2.15-2.15-3.153-3.153-5.947-4.37-5.804-2.652-11.823-2.222-20.565 1.647-.43.143-.644.645-.573 1.146 0 .144.072.359.215.502.143.143.43.287.716.287h1.29c4.514-.072 6.807-.072 10.891 4.012 1.935 1.935 1.863 4.873-.215 6.95l-8.598 8.599-19.346 19.346a4.065 4.065 0 0 0 0 5.732l1.433 1.433a4.065 4.065 0 0 0 5.732 0l19.346-19.346 7.946-7.946c.637.423 1.198.514 1.87.566.144 0 .288 0 .502.072.574.143 1.003.143 1.433.143.86 0 1.147 0 1.863.716-.358.359-.573.86-.645 1.362 0 .573.215 1.075.645 1.504l3.583 3.583c1.218 1.218 3.081 1.218 4.3 0l7.164-7.165c1.218-1.218 1.218-3.081 0-4.3zm-29.377 9.314l-4.3-4.299 7.166-7.165 4.3 4.3-7.166 7.164zM21.265 58.73a2.033 2.033 0 0 1-2.866 0l-1.433-1.433a2.033 2.033 0 0 1 0-2.866l.716-.717 1.434 1.433c.358.359 1.003.43 1.433 0 .43-.43.43-1.003 0-1.433l-1.433-1.433 1.433-1.433 1.433 1.433c.358.358 1.003.43 1.433 0 .43-.43.43-1.003 0-1.433l-1.433-1.433 13.614-13.614 4.299 4.3-18.63 18.629zm40.842-19.346c-.43.43-1.003.43-1.433 0L57.091 35.8c.359-.358.573-.86.43-1.29.072-.644-.143-1.146-.573-1.576-1.218-1.218-1.935-1.361-3.081-1.361-.287 0-.717 0-1.218-.072-.143 0-.358-.071-.502-.071-.788-.072-1.003-.144-1.504-.645l-5.088-5.088c2.15-2.722 2.007-6.592-.43-9.028-3.224-3.224-5.66-4.227-8.383-4.514 5.66-1.791 10.032-1.72 14.187.143 2.365 1.075 3.153 1.863 5.302 4.013l3.726 3.726a5.21 5.21 0 0 1 1.434 2.866c.071.501.071.931.071 1.218.072 1.075.143 1.863 1.361 3.081.359.358.932.645 1.434.573a2 2 0 0 0 1.433-.573l3.582 3.583c.43.43.43 1.003 0 1.433l-7.165 7.165z" fill="#fff"/></svg>