<svg width="60" height="60" fill="none" xmlns="http://www.w3.org/2000/svg"><path d="M19.879 35.776L6.868 48.787a3.128 3.128 0 0 0 0 4.418 3.127 3.127 0 0 0 4.418 0l13.01-13.011a3.125 3.125 0 0 0 0-4.418 3.203 3.203 0 0 0-4.417 0zm3.002 3.003l-13.01 13.01a1.122 1.122 0 0 1-1.588-1.587l13.011-13.01a1.148 1.148 0 0 1 1.586 0 1.122 1.122 0 0 1 0 1.587h.001z" fill="#fff"/><path d="M54.31 13.033a.994.994 0 0 0 .5-.367l5.004-7.006a1.001 1.001 0 0 0-.107-1.289L55.703.368a1.001 1.001 0 0 0-1.289-.106l-7.006 5.004a1 1 0 0 0-.367.5l-.927 2.779-15.64 15.636-2.796-2.796a1 1 0 0 0-1.415 0l-3.003 3.003a1.001 1.001 0 0 0-.293.707 4.546 4.546 0 0 1-3.114 4.32l-.963.322a6.568 6.568 0 0 0-2.561 1.583L2.517 45.132a8.785 8.785 0 0 0 12.428 12.42L28.758 43.74a6.597 6.597 0 0 0 1.584-2.563l.32-.963a4.546 4.546 0 0 1 4.316-3.108 1 1 0 0 0 .708-.294l3.002-3.002c.39-.391.39-1.025 0-1.416L35.892 29.6l15.639-15.64 2.778-.927zM34.548 35.117a6.55 6.55 0 0 0-5.79 4.47l-.322.961a4.58 4.58 0 0 1-1.1 1.782L13.523 56.14a6.784 6.784 0 0 1-9.593-9.594l13.81-13.811c.501-.5 1.11-.877 1.782-1.101l.961-.32a6.545 6.545 0 0 0 4.469-5.791l2.018-2.016 9.594 9.594-2.016 2.016zm15.734-22.74L34.477 28.185l-2.588-2.588L47.695 9.79a.998.998 0 0 0 .242-.392l.9-2.693 6.052-4.323 2.802 2.803-4.323 6.05-2.693.902a1.012 1.012 0 0 0-.392.24z" fill="#fff"/></svg>