<svg width="69" height="69" fill="none" xmlns="http://www.w3.org/2000/svg"><g clip-path="url(#clip0)" fill="#333"><path d="M63.41 42.718c-.945 0-1.711.758-1.711 1.694v15.037c-.003 2.805-2.3 5.078-5.133 5.08H8.556c-2.835-.002-5.13-2.275-5.134-5.08V15.316c.004-2.805 2.3-5.078 5.133-5.081h15.193c.945 0 1.71-.758 1.71-1.694 0-.935-.765-1.693-1.71-1.693H8.555C3.833 6.853.005 10.64 0 15.316V59.45c.005 4.674 3.833 8.462 8.555 8.468h48.01c4.724-.006 8.55-3.794 8.556-8.468V44.412c0-.936-.766-1.694-1.711-1.694z"/><path d="M64.444 2.491c-3.008-2.976-7.883-2.976-10.89 0L23.028 32.706c-.21.207-.36.464-.44.745l-4.013 14.345a1.682 1.682 0 0 0 .438 1.65 1.725 1.725 0 0 0 1.667.435l14.492-3.974c.285-.078.545-.228.754-.435L66.45 15.257a7.574 7.574 0 0 0 0-10.779l-2.007-1.987zM26.755 33.807L51.74 9.077l8.057 7.976-24.984 24.729-8.057-7.975zm-1.61 3.196l6.438 6.373-8.904 2.441 2.467-8.814zm38.886-24.141l-1.815 1.796-8.058-7.976 1.816-1.796a4.308 4.308 0 0 1 6.048 0l2.009 1.987a4.21 4.21 0 0 1 0 5.989z"/></g><defs><clipPath id="clip0"><path fill="#fff" d="M0 0h68.703v68.002H0z"/></clipPath></defs></svg>