<svg width="69" height="69" fill="none" xmlns="http://www.w3.org/2000/svg"><g clip-path="url(#clip0)" fill="#333"><path d="M54.297 42.125c-1.407-1.45-3.103-2.225-4.901-2.225-1.784 0-3.495.76-4.96 2.21l-4.581 4.522c-.377-.201-.755-.388-1.117-.575-.522-.258-1.015-.502-1.435-.76-4.293-2.698-8.193-6.215-11.934-10.764-1.813-2.268-3.03-4.177-3.915-6.114 1.189-1.077 2.29-2.196 3.364-3.273.406-.402.812-.818 1.218-1.22 3.045-3.014 3.045-6.917 0-9.931l-3.959-3.919a59.73 59.73 0 0 1-1.348-1.363 68.204 68.204 0 0 0-2.726-2.67c-1.407-1.377-3.089-2.11-4.858-2.11-1.769 0-3.48.733-4.93 2.11l-.029.03-4.93 4.922C1.4 12.832.342 15.07.11 17.669c-.349 4.19.899 8.094 1.856 10.649 2.349 6.272 5.858 12.085 11.092 18.314 6.351 7.506 13.993 13.433 22.722 17.61 3.335 1.564 7.787 3.415 12.76 3.731.305.015.624.029.914.029 3.35 0 6.162-1.191 8.366-3.56.015-.028.044-.042.058-.071.754-.904 1.624-1.722 2.538-2.598a56.828 56.828 0 0 0 1.885-1.851c1.435-1.479 2.19-3.2 2.19-4.966 0-1.78-.77-3.488-2.234-4.923l-7.96-7.908zm5.19 15.113c-.014 0-.014.014 0 0-.565.602-1.145 1.148-1.768 1.75-.943.89-1.9 1.824-2.799 2.871-1.464 1.55-3.19 2.282-5.452 2.282-.217 0-.45 0-.667-.014-4.306-.273-8.309-1.938-11.31-3.359-8.207-3.932-15.414-9.515-21.402-16.59-4.945-5.9-8.25-11.353-10.44-17.21-1.349-3.573-1.842-6.357-1.624-8.984.145-1.679.797-3.071 2-4.262l4.945-4.894c.71-.66 1.465-1.02 2.204-1.02.914 0 1.653.546 2.117 1.005l.044.043a72.835 72.835 0 0 1 2.61 2.57c.45.459.913.918 1.377 1.392l3.959 3.918c1.537 1.521 1.537 2.928 0 4.449-.42.416-.827.832-1.247 1.234-1.218 1.235-2.378 2.383-3.64 3.502-.029.029-.058.043-.072.072-1.247 1.234-1.015 2.44-.754 3.258l.043.13c1.03 2.468 2.48 4.793 4.684 7.563l.014.014c4.002 4.88 8.222 8.683 12.876 11.597.595.373 1.204.674 1.784.961.522.259 1.015.503 1.435.76.058.03.116.073.174.101.493.244.957.36 1.436.36 1.203 0 1.957-.747 2.204-.991l4.96-4.909c.492-.488 1.275-1.076 2.189-1.076.899 0 1.638.56 2.088 1.048l.029.028 7.99 7.908c1.493 1.464 1.493 2.971.014 4.493zM37.128 16.176c3.8.631 7.25 2.41 10.005 5.138 2.756 2.727 4.54 6.142 5.192 9.903a1.94 1.94 0 0 0 1.928 1.607c.116 0 .218-.014.334-.029a1.942 1.942 0 0 0 1.61-2.238c-.784-4.55-2.959-8.698-6.28-11.984a22.443 22.443 0 0 0-12.107-6.215c-1.073-.172-2.074.531-2.262 1.579a1.918 1.918 0 0 0 1.58 2.239zm31.495 13.821c-1.29-7.492-4.857-14.31-10.339-19.734C52.805 4.838 45.916 1.307 38.347.03a1.948 1.948 0 0 0-2.248 1.578 1.95 1.95 0 0 0 1.61 2.24c6.757 1.133 12.92 4.305 17.82 9.142 4.901 4.85 8.092 10.95 9.237 17.639a1.94 1.94 0 0 0 1.929 1.607c.116 0 .217-.014.333-.029a1.904 1.904 0 0 0 1.595-2.21z"/></g><defs><clipPath id="clip0"><path fill="#fff" d="M0 0h68.703v68.002H0z"/></clipPath></defs></svg>