<svg width="78" height="77" fill="none" xmlns="http://www.w3.org/2000/svg"><g clip-path="url(#clip0)" fill="#333"><path d="M71.52 55.197a1.558 1.558 0 0 0-1.991-.901l-16.122 5.841a1.514 1.514 0 0 0-.917 1.955 1.55 1.55 0 0 0 1.454.996c.178 0 .36-.03.537-.095l16.121-5.841a1.515 1.515 0 0 0 .918-1.955zm-20.554 7.447a1.558 1.558 0 0 0-1.991-.901l-.683.247a1.515 1.515 0 0 0-.918 1.955 1.55 1.55 0 0 0 1.455.996c.178 0 .36-.03.536-.094l.683-.248a1.515 1.515 0 0 0 .918-1.955zm20.554-13.65a1.559 1.559 0 0 0-1.991-.901l-12.74 4.616a1.514 1.514 0 0 0-.918 1.955 1.55 1.55 0 0 0 1.454.995c.179 0 .36-.03.537-.094l12.74-4.616a1.515 1.515 0 0 0 .918-1.955zm0-6.138a1.559 1.559 0 0 0-1.991-.901l-12.74 4.616a1.514 1.514 0 0 0-.918 1.955 1.55 1.55 0 0 0 1.454.996c.179 0 .36-.03.537-.095l12.74-4.616a1.515 1.515 0 0 0 .918-1.955z"/><path d="M76.803 15.004L39.445 1.468a1.578 1.578 0 0 0-1.074 0L1.013 15.004v.001A1.514 1.514 0 0 0 0 16.432v43.551c0 .638.404 1.208 1.013 1.428l37.358 13.537a1.572 1.572 0 0 0 1.073-.001l37.359-13.536a1.524 1.524 0 0 0 1.013-1.428v-43.55c0-.638-.404-1.208-1.013-1.429zM37.358 71.335L3.1 58.923V18.617l6.975 2.527v18.444c0 .637.405 1.207 1.014 1.428l16.741 6.066a1.575 1.575 0 0 0 1.423-.18c.416-.284.664-.75.664-1.248v-17.32l7.44 2.695v40.306zM26.817 27.21v16.26l-13.641-4.943v-16.26l13.64 4.943zm-10.713-7.14l12.263-4.443 12.263 4.444-12.263 4.443-12.264-4.443zm22.804 8.276l-6.08-2.203 12.817-4.644a1.524 1.524 0 0 0 1.013-1.428c0-.638-.404-1.208-1.013-1.428l-16.741-6.066a1.58 1.58 0 0 0-1.074 0l-16.22 5.878-5.581-2.023L38.908 4.52l32.88 11.913-32.88 11.914zm35.808 30.576L40.458 71.335V31.03l34.258-12.413v40.306z"/></g><defs><clipPath id="clip0"><path fill="#fff" d="M0 0h77.816v76.414H0z"/></clipPath></defs></svg>