<svg width="22" height="24" fill="none" xmlns="http://www.w3.org/2000/svg"><g clip-path="url(#clip0)"><path d="M19.524 19.54L18.282 5.551a.598.598 0 0 0-.595-.546h-2.555A4.289 4.289 0 0 0 10.847.787 4.289 4.289 0 0 0 6.56 5.006H4.006a.595.595 0 0 0-.595.546L2.17 19.539c0 .018-.004.036-.004.053 0 1.593 1.46 2.888 3.256 2.888h10.851c1.797 0 3.256-1.295 3.256-2.888 0-.017 0-.035-.004-.053zM10.846 1.984a3.09 3.09 0 0 1 3.088 3.021H7.76a3.09 3.09 0 0 1 3.088-3.021zm5.426 19.297H5.422c-1.128 0-2.042-.745-2.06-1.663l1.19-13.41h2.005v1.818c0 .333.266.599.599.599a.596.596 0 0 0 .599-.599V6.208h6.18v1.82c0 .332.265.598.598.598a.596.596 0 0 0 .599-.599V6.208h2.005l1.193 13.41c-.017.92-.936 1.665-2.058 1.665z" fill="#fff"/></g><circle cx="16.872" cy="19.467" r="4.218" fill="#C4F348"/><path d="M17.417 17.398v3.5h-.81v-2.85h-.7v-.65h1.51z" fill="#141414"/><defs><clipPath id="clip0"><path fill="#fff" transform="translate(0 .787)" d="M0 0h21.693v21.693H0z"/></clipPath></defs></svg>