<svg width="17" height="17" fill="none" xmlns="http://www.w3.org/2000/svg"><path d="M8.5 17a8.5 8.5 0 1 0 0-17 8.5 8.5 0 0 0 0 17z" fill="#3EB8ED"/><path d="M15.619 3.865l-7.517 7.783.013.837h.345l8.142-6.561a8.645 8.645 0 0 0-.983-2.06z" fill="#39A4D2"/><path d="M16.84 3.493l-1.5-1.488a.538.538 0 0 0-.744 0L8.181 8.633 5.406 5.897c-.2-.2-.532-.2-.744 0L3.334 7.212a.52.52 0 0 0 0 .73l4.436 4.396c.12.12.279.16.438.146a.54.54 0 0 0 .438-.146l8.195-8.101a.538.538 0 0 0 0-.744z" fill="#fff"/><path d="M8.646 12.338l8.195-8.101a.52.52 0 0 0 0-.73l-.24-.226-8.406 8.26-4.649-4.528-.2.199a.523.523 0 0 0 0 .73l4.437 4.396c.12.12.279.16.438.147a.526.526 0 0 0 .425-.147z" fill="#E6E5E3"/></svg>