<svg width="162" height="25" fill="none" xmlns="http://www.w3.org/2000/svg"><path d="M42.616 7.242h-4.744v11.186H34.68V7.242H30v-2.24h12.616v2.24zm6.51 11.186a2.68 2.68 0 0 1-.308-.895c-.745.72-1.713 1.079-2.904 1.079-1.128 0-2.064-.283-2.809-.848-.737-.566-1.106-1.279-1.106-2.14 0-1.057.45-1.869 1.351-2.434.908-.566 2.216-.851 3.925-.858h1.415v-.571c0-.461-.138-.83-.415-1.107-.27-.277-.698-.415-1.287-.415-.518 0-.925.108-1.223.323a1.04 1.04 0 0 0-.436.885h-3.075c0-.578.206-1.113.617-1.604.412-.492.993-.876 1.745-1.153.752-.283 1.596-.424 2.532-.424 1.418 0 2.542.31 3.372.931.836.615 1.255 1.482 1.255 2.6v4.325c.007.947.16 1.663.457 2.149v.157h-3.106zm-2.542-1.854c.454 0 .872-.086 1.255-.258.383-.178.667-.415.851-.71V13.89h-1.149c-1.539 0-2.358.46-2.457 1.383l-.01.157c0 .332.134.605.404.82.269.215.638.323 1.106.323zm12.339-.111c.567 0 1.029-.135 1.383-.405.355-.27.539-.63.553-1.08h2.883a3.12 3.12 0 0 1-.638 1.864c-.419.559-.993.995-1.724 1.309-.723.307-1.524.461-2.404.461-1.645 0-2.943-.452-3.893-1.355-.95-.91-1.425-2.164-1.425-3.763v-.175c0-1.537.471-2.763 1.414-3.68.944-.915 2.238-1.373 3.883-1.373 1.44 0 2.592.356 3.457 1.07.873.706 1.316 1.65 1.33 2.83h-2.883c-.014-.516-.198-.934-.553-1.254-.354-.326-.823-.489-1.404-.489-.716 0-1.259.228-1.628.683-.361.449-.542 1.18-.542 2.195v.276c0 1.027.18 1.764.542 2.213.362.45.912.674 1.65.674zM69.178 5.997V8.45h1.968v1.955h-1.968v4.98c0 .368.081.633.244.793.163.16.475.24.937.24.34 0 .641-.022.904-.065v2.02a7.23 7.23 0 0 1-1.862.239c-2.156 0-3.255-.944-3.297-2.83v-5.377h-1.681V8.45h1.68V5.997h3.075zm6.925 12.431h-3.085V8.45h3.085v9.978zm-3.266-12.56c0-.4.152-.728.457-.987.312-.258.734-.387 1.266-.387.525 0 .943.13 1.255.388.313.258.469.587.469.986 0 .406-.16.738-.48.996-.311.258-.726.387-1.244.387-.517 0-.936-.129-1.255-.387a1.234 1.234 0 0 1-.468-.996zm10.595 10.595c.567 0 1.028-.135 1.383-.405.354-.27.539-.63.553-1.08h2.883a3.12 3.12 0 0 1-.639 1.864c-.418.559-.992.995-1.723 1.309-.723.307-1.525.461-2.404.461-1.645 0-2.943-.452-3.893-1.355-.95-.91-1.426-2.164-1.426-3.763v-.175c0-1.537.472-2.763 1.415-3.68.943-.915 2.237-1.373 3.883-1.373 1.44 0 2.592.356 3.457 1.07.872.706 1.315 1.65 1.33 2.83h-2.883c-.014-.516-.199-.934-.553-1.254-.355-.326-.823-.489-1.404-.489-.717 0-1.26.228-1.628.683-.362.449-.542 1.18-.542 2.195v.276c0 1.027.18 1.764.542 2.213.362.45.911.674 1.649.674zm13.243 1.965a2.675 2.675 0 0 1-.308-.895c-.745.72-1.713 1.079-2.904 1.079-1.128 0-2.064-.283-2.808-.848-.738-.566-1.107-1.279-1.107-2.14 0-1.057.45-1.869 1.351-2.434.908-.566 2.216-.851 3.926-.858h1.414v-.571c0-.461-.138-.83-.415-1.107-.269-.277-.698-.415-1.287-.415-.517 0-.925.108-1.223.323-.29.215-.436.51-.436.885h-3.074c0-.578.205-1.113.617-1.604.411-.492.992-.876 1.744-1.153.752-.283 1.596-.424 2.532-.424 1.418 0 2.542.31 3.372.931.837.615 1.255 1.482 1.255 2.6v4.325c.007.947.16 1.663.458 2.149v.157h-3.106zm-2.542-1.854c.454 0 .872-.086 1.255-.258.383-.178.667-.415.851-.71V13.89h-1.148c-1.54 0-2.358.46-2.458 1.383l-.01.157c0 .332.134.605.404.82.27.215.638.323 1.106.323zm10.797 1.854h-3.085V4.264h3.085v14.164zm8.521-4.676h-5.989v-2.148h5.989v2.148zm8.701 1.918c0-.325-.188-.58-.564-.765-.368-.19-.964-.36-1.787-.507-2.737-.498-4.106-1.506-4.106-3.025 0-.885.422-1.623 1.266-2.213.851-.596 1.961-.894 3.33-.894 1.46 0 2.627.298 3.499.894.88.597 1.319 1.371 1.319 2.324h-3.074c0-.381-.142-.695-.425-.94-.284-.253-.727-.379-1.33-.379-.518 0-.918.102-1.202.305-.284.202-.426.46-.426.774 0 .295.16.535.479.72.326.178.872.335 1.638.47.766.129 1.412.276 1.936.442 1.624.517 2.436 1.411 2.436 2.684 0 .91-.45 1.647-1.351 2.213-.9.56-2.063.839-3.489.839-.964 0-1.822-.147-2.574-.443-.745-.3-1.33-.71-1.755-1.226-.426-.523-.638-1.085-.638-1.688h2.914c.029.474.231.836.607 1.089.375.252.879.378 1.51.378.589 0 1.032-.096 1.33-.286.305-.197.457-.452.457-.766zm7.978-6.132c.816-.848 1.841-1.272 3.074-1.272 2.497 0 3.763 1.257 3.798 3.771v6.39h-3.074v-6.316c0-.572-.142-.993-.426-1.263-.283-.277-.755-.415-1.414-.415-.901 0-1.554.301-1.958.903v7.092h-3.074V4.264h3.074v5.274zm8.712 3.809c0-.99.22-1.872.66-2.647a4.485 4.485 0 0 1 1.893-1.798c.83-.424 1.791-.636 2.883-.636 1.553 0 2.819.412 3.798 1.235.985.824 1.535 1.943 1.648 3.357l.022.682c0 1.531-.493 2.76-1.479 3.689-.986.922-2.308 1.383-3.968 1.383-1.659 0-2.985-.461-3.978-1.383-.986-.922-1.479-2.176-1.479-3.762v-.12zm3.075.193c0 .947.205 1.672.616 2.177.412.498 1 .746 1.766.746.745 0 1.326-.245 1.745-.737.418-.498.627-1.291.627-2.38 0-.928-.209-1.647-.627-2.157-.419-.51-1.007-.765-1.766-.765-.752 0-1.333.255-1.745.765-.411.504-.616 1.288-.616 2.351zM162 13.531c0 1.537-.404 2.77-1.213 3.698-.801.922-1.886 1.383-3.255 1.383-1.163 0-2.102-.35-2.819-1.051v4.703h-3.074V8.45h2.851l.106.978c.745-.775 1.717-1.162 2.915-1.162 1.418 0 2.521.455 3.308 1.364.787.91 1.181 2.164 1.181 3.763v.138zm-3.074-.194c0-.928-.192-1.644-.575-2.148-.375-.504-.925-.756-1.648-.756-.965 0-1.628.32-1.99.959v4.085c.376.658 1.046.986 2.011.986 1.468 0 2.202-1.042 2.202-3.126zM9.193 16.234l2.221-2.31 2.51 2.31h4.297l-6.837-6.69-6.78 6.69h4.59z" fill="#fff"/><path d="M15.504 5.481L12.26 8.788l2.164 2.205 1.102-1.103 6.035 6a9.672 9.672 0 1 1 .457-5.12l2.908 3.083A12.502 12.502 0 0 0 12.5 0 12.503 12.503 0 0 0 0 12.5 12.503 12.503 0 0 0 12.5 25a12.525 12.525 0 0 0 12.21-9.788l-2.532-2.679-6.674-7.052z" fill="#fff"/></svg>