<svg width="121" height="23" fill="none" xmlns="http://www.w3.org/2000/svg"><path d="M11.924 1.376L14.34 8.53l7.549.088c.649.007.918.835.397 1.222l-6.056 4.508 2.25 7.207c.192.62-.51 1.13-1.041.755l-6.158-4.367-6.16 4.366c-.529.376-1.233-.136-1.04-.755l2.25-7.207L.275 9.838c-.521-.387-.252-1.215.397-1.222l7.549-.088 2.416-7.153c.208-.615 1.079-.615 1.287.001zm24.37 0L38.71 8.53l7.548.088c.65.007.919.835.398 1.222L40.6 14.347l2.25 7.207c.192.62-.511 1.13-1.041.755l-6.158-4.367-6.16 4.366c-.529.376-1.233-.136-1.04-.755l2.25-7.207-6.056-4.508c-.521-.387-.253-1.215.397-1.222l7.549-.088 2.416-7.153c.208-.615 1.079-.615 1.287.001zm24.37 0L63.08 8.53l7.549.088c.65.007.918.835.397 1.222l-6.056 4.508 2.25 7.207c.193.62-.51 1.13-1.041.755l-6.158-4.367-6.159 4.366c-.53.376-1.234-.136-1.04-.755l2.25-7.207-6.057-4.508c-.521-.387-.252-1.215.397-1.222l7.55-.088 2.415-7.153c.209-.615 1.08-.615 1.287.001zm24.37 0L87.45 8.53l7.549.088c.65.007.918.835.397 1.222l-6.056 4.508 2.25 7.207c.193.62-.51 1.13-1.041.755l-6.158-4.367-6.159 4.366c-.53.376-1.234-.136-1.04-.755l2.25-7.207-6.057-4.508c-.521-.387-.252-1.215.397-1.222l7.55-.088 2.415-7.153c.209-.615 1.08-.615 1.287.001zm24.37 0l2.416 7.153 7.549.088c.649.007.918.835.397 1.222l-6.056 4.508 2.249 7.207c.194.62-.51 1.13-1.04.755l-6.158-4.367-6.159 4.366c-.529.376-1.233-.136-1.04-.755l2.249-7.207-6.056-4.508c-.521-.387-.252-1.215.398-1.222l7.548-.088 2.416-7.153c.209-.615 1.079-.615 1.287.001z" fill="#FB7B5F"/></svg>